<svg width="45" height="22" viewBox="0 0 45 22" fill="none" xmlns="http://www.w3.org/2000/svg">
<path d="M4.936 9L3.744 4.52H3.712C3.71733 4.62667 3.72533 4.78667 3.736 5C3.74667 5.21333 3.75733 5.44267 3.768 5.688C3.77867 5.928 3.784 6.14667 3.784 6.344V9H2.632V3.288H4.376L5.568 7.656H5.592L6.816 3.288H8.56V9H7.36V6.296C7.36 6.11467 7.36267 5.90667 7.368 5.672C7.37333 5.43733 7.38133 5.216 7.392 5.008C7.40267 4.79467 7.41067 4.63467 7.416 4.528H7.384L6.152 9H4.936ZM14.4513 6.984C14.4513 7.37867 14.366 7.736 14.1953 8.056C14.03 8.37067 13.7793 8.62133 13.4433 8.808C13.1073 8.98933 12.686 9.08 12.1793 9.08C11.454 9.08 10.8993 8.888 10.5153 8.504C10.1366 8.11467 9.94731 7.60267 9.94731 6.968V3.288H11.2433V6.784C11.2433 7.25333 11.3233 7.584 11.4833 7.776C11.6486 7.968 11.8886 8.064 12.2033 8.064C12.4273 8.064 12.6086 8.01867 12.7473 7.928C12.886 7.83733 12.9873 7.696 13.0513 7.504C13.1206 7.312 13.1553 7.06933 13.1553 6.776V3.288H14.4513V6.984ZM15.8348 9V3.288H17.1308V8H19.2508V9H15.8348ZM22.3749 9H21.0789V4.296H19.6949V3.288H23.7589V4.296H22.3749V9ZM26.9493 9H24.3333V8.312L24.9973 7.992V4.296L24.3333 3.976V3.288H26.9493V3.976L26.2933 4.296V7.992L26.9493 8.312V9ZM32.4107 3.288L30.6107 9H29.1387L27.3547 3.288H28.7387L29.6187 6.688C29.6347 6.74667 29.6614 6.856 29.6987 7.016C29.736 7.17067 29.7734 7.336 29.8107 7.512C29.848 7.68267 29.872 7.82667 29.8827 7.944C29.8987 7.82667 29.9227 7.68267 29.9547 7.512C29.992 7.34133 30.0267 7.17867 30.0587 7.024C30.096 6.864 30.1227 6.752 30.1387 6.688L31.0187 3.288H32.4107ZM35.4334 9H32.8174V8.312L33.4814 7.992V4.296L32.8174 3.976V3.288H35.4334V3.976L34.7774 4.296V7.992L35.4334 8.312V9ZM41.0547 9H39.5667L38.4147 6.84L37.2707 9H35.8467L37.6307 6.056L35.9587 3.288H37.3907L38.4547 5.344L39.4867 3.288H40.9267L39.2307 6.12L41.0547 9Z" fill="white"/>
<line y1="11.75" x2="45" y2="11.75" stroke="white" stroke-width="0.5"/>
<path d="M17.104 14.288C17.7547 14.288 18.24 14.4213 18.56 14.688C18.88 14.9547 19.04 15.36 19.04 15.904C19.04 16.176 18.9973 16.4213 18.912 16.64C18.832 16.8587 18.7067 17.0453 18.536 17.2C18.3707 17.3493 18.16 17.464 17.904 17.544C17.648 17.624 17.344 17.664 16.992 17.664H16.216V20H15.752V14.288H17.104ZM17.056 14.696H16.216V17.264H16.936C17.2773 17.264 17.568 17.224 17.808 17.144C18.0533 17.0587 18.24 16.92 18.368 16.728C18.496 16.5307 18.56 16.264 18.56 15.928C18.56 15.5013 18.4373 15.1893 18.192 14.992C17.952 14.7947 17.5733 14.696 17.056 14.696ZM24.3415 20H21.3895V14.288H24.3415V14.704H21.8535V16.8H24.2055V17.208H21.8535V19.584H24.3415V20ZM27.9777 20H26.3697V19.712L26.9377 19.624V14.672L26.3697 14.576V14.288H27.9777V14.576L27.4017 14.672V19.624L27.9777 19.712V20Z" fill="white"/>
</svg>
